<svg width="16446" height="2400" viewBox="0 0 16446 2400" fill="none" xmlns="http://www.w3.org/2000/svg">
<path d="M2329.07 515.266C2304.72 482.434 2278.6 450.801 2250.95 420.488C2250.54 420.056 2250.28 419.552 2249.87 419.096C2249.36 418.544 2248.75 418.088 2248.23 417.536C2220.56 387.392 2191.32 358.567 2160.62 331.159C1993.87 182.14 1784.49 74.9775 1551.2 27.5045C1463.46 9.64819 1372.47 0 1279 0C1185.56 0 1094.57 9.64819 1006.81 27.5045C656.232 98.834 359.272 304.902 180.672 585.156C125.445 671.797 81.7284 765.543 51.0579 864.545C18.034 971.059 0 1083.55 0 1200.02C0 1453.69 84.1585 1688.87 227.381 1882.69C248.894 1911.81 271.609 1940.08 295.706 1967.22C299.057 1972.1 302.638 1976.87 306.68 1981.31C311.207 1986.28 316.196 1990.84 321.465 1995.11C345.92 2021.01 371.551 2045.82 398.256 2069.63C564.86 2218.22 773.951 2325.12 1006.83 2372.5C1094.57 2390.35 1185.59 2400 1279.03 2400C1372.47 2400 1463.49 2390.35 1551.23 2372.5C1903.08 2300.93 2200.86 2093.59 2379.26 1811.77C2432.44 1727.79 2474.9 1637.24 2505.11 1541.67C2539.36 1433.33 2558.03 1318.73 2558.03 1200C2558.01 945.427 2473.26 709.502 2329.07 515.266ZM2075.08 1951.89C2004.3 2017.84 1924.21 2074.91 1836.98 2121.57C1808.77 2136.67 1779.84 2150.66 1750.14 2163.48C1798.92 2108.39 1843.3 2044.84 1882.52 1974.45C1862.13 1975.26 1841.49 1975.86 1820.25 1975.86C1785.16 1975.86 1749.35 1974.45 1713.12 1972.14C1712.48 1973.13 1711.87 1974.18 1711.23 1975.14C1590.11 2159.08 1436.58 2260.41 1279 2260.41C1122.3 2260.41 969.639 2160.14 848.824 1978.14C848.159 1977.11 847.443 1976.18 846.752 1975.14C839.973 1964.85 833.451 1954.26 826.979 1943.63C802.985 1904.13 781.114 1862.29 761.443 1818.42C756.122 1806.54 751.006 1794.44 745.992 1782.28C729.135 1741.19 714.119 1698.51 701.074 1654.43C664.648 1633.42 629.398 1611.78 595.428 1589.55C590.977 1595.86 586.398 1602.2 582.101 1608.44C569.797 1626.39 558.797 1643.34 548.77 1659.54C565.294 1719.95 584.991 1777.81 607.502 1832.75C612.413 1844.77 617.375 1856.73 622.568 1868.44C642.291 1912.98 664.034 1955.3 687.388 1995.35C694.372 2007.3 701.534 2018.99 708.824 2030.54C739.367 2078.85 772.391 2123.47 807.87 2163.5C778.198 2150.68 749.241 2136.69 721.026 2121.59C683.986 2101.77 648.225 2080.1 613.922 2056.62C599.035 2046.42 584.454 2035.94 570.155 2025.09C594.481 2020.58 619.908 2014.74 646.409 2007.5C622.901 1966.67 601.158 1924.07 581.615 1879.6C536.261 1890.69 497.072 1896.16 465.123 1896.16C441.922 1896.16 429.029 1893.18 422.89 1891.12C421.739 1890.73 420.741 1890.37 420.051 1890.09C419.82 1889.34 419.616 1888.31 419.437 1887.37C414.756 1865.94 420.537 1791.66 503.621 1653.73C512.906 1638.3 523.497 1621.81 534.829 1604.77C538.742 1598.86 542.451 1593.15 546.621 1587.06C551.251 1580.29 556.214 1573.45 561.023 1566.61C547.388 1557.27 533.908 1547.89 520.708 1538.38C503.723 1526.17 487.147 1513.85 470.955 1501.37C461.746 1494.29 452.64 1487.17 443.712 1480.01C378.483 1570.76 330.111 1655.65 301.129 1730.6C291.843 1715.6 282.941 1700.36 274.423 1684.91C194.358 1539.46 148.825 1374.68 148.825 1200.02C148.825 1187.78 149.362 1175.69 149.823 1163.54C150.718 1138.53 152.304 1113.72 155.041 1089.19C212.11 1199.47 307.473 1313.21 435.655 1421.26C444.403 1428.65 453.254 1436 462.309 1443.34C464.074 1444.76 465.737 1446.2 467.502 1447.64C481.545 1458.89 495.921 1470.08 510.681 1481.14C534.394 1499 559.232 1516.59 584.761 1533.94C596.042 1541.65 607.476 1549.3 619.115 1556.91C640.756 1571.02 663.036 1584.94 685.828 1598.65C702.659 1608.8 719.849 1618.81 737.32 1628.7C762.542 1643 788.174 1657.11 814.649 1670.84C841.329 1684.69 868.214 1697.82 895.201 1710.59C910.626 1717.91 926.05 1725.23 941.552 1732.19C997.265 1757.2 1053.46 1779.71 1109.77 1800.2C1126.37 1806.25 1143 1812.11 1159.62 1817.77C1221.4 1838.77 1283.07 1857.06 1344.21 1872.52C1349.63 1890.54 1359.38 1906.81 1372.35 1920.35C1395.96 1945.02 1430.11 1960.67 1468.25 1960.67C1487.07 1960.67 1504.93 1956.78 1521.02 1949.99C1539.05 1942.38 1554.91 1931.08 1567.39 1917.01C1608.99 1923.01 1649.92 1927.6 1690.08 1930.79C1705.86 1932.04 1721.49 1933 1736.99 1933.79C1765.18 1935.25 1793.04 1936.26 1820.25 1936.26C1848.83 1936.26 1876.79 1935.4 1904.13 1933.77C1920.66 1932.78 1936.95 1931.51 1952.99 1929.93C2016.12 1923.73 2075.18 1912.81 2129.31 1897.31C2111.89 1916.08 2093.88 1934.37 2075.08 1951.89ZM2408.11 1239.7C2407.14 1264.66 2405.37 1289.43 2402.56 1313.95C2393.2 1295.64 2382.81 1277.31 2371.33 1258.85C2376.54 1245.7 2379.54 1231.54 2379.54 1216.7C2379.54 1208.64 2378.64 1200.77 2377.03 1193.14C2369.48 1157.35 2345.18 1127.23 2312.06 1110.33C2293.77 1101 2272.82 1095.72 2250.54 1095.72C2248.49 1095.72 2246.49 1095.91 2244.45 1096.01C2207.51 1056.67 2166.15 1017.67 2120.72 979.34C2112.61 972.5 2104.37 965.683 2095.98 958.867C2097.98 974.107 2099.64 989.468 2101.25 1004.85C2106.8 1057.68 2110.03 1111.37 2111.02 1165.61C2116.45 1171.08 2121.77 1176.55 2127.01 1182.02C2123.51 1193.04 2121.56 1204.66 2121.56 1216.75C2121.56 1224.02 2122.35 1231.1 2123.66 1237.99C2130.77 1275.65 2156.4 1307.26 2191.45 1324.25C2208.61 1332.58 2228 1337.4 2248.57 1337.69C2280.57 1391.02 2301.77 1443.27 2310.29 1492.88C2322.72 1565.22 2305.94 1623.51 2258.95 1671.25C2208.33 1722.75 2123.48 1759.96 2015.81 1779.9C2000.36 1782.78 1984.45 1785.32 1968.11 1787.46C1922.04 1793.46 1872.59 1796.68 1820.25 1796.68C1815.6 1796.68 1810.81 1796.44 1806.11 1796.39C1791.25 1796.22 1776.33 1795.98 1761.21 1795.38C1701.97 1792.96 1640.89 1786.88 1578.75 1777.57C1563.53 1753.81 1539.92 1735.38 1511.71 1725.9C1500.84 1722.25 1489.3 1719.92 1477.28 1719.13C1474.28 1718.94 1471.29 1718.7 1468.22 1718.7C1440.65 1718.7 1415.14 1726.88 1394.17 1740.73C1367.56 1734.15 1340.91 1727.05 1314.2 1719.35C1297.45 1714.52 1280.69 1709.43 1263.94 1704.18C1207.3 1686.44 1150.77 1666.28 1094.75 1643.82C1078.81 1637.46 1062.98 1630.98 1047.17 1624.23C992.84 1601.07 939.096 1575.92 886.529 1548.63C823.73 1516.11 764.256 1481.38 708.543 1445.16C704.604 1442.6 700.613 1440.03 696.699 1437.46C689.076 1432.42 681.53 1427.36 674.087 1422.27C665.901 1416.72 657.869 1411.11 649.862 1405.49C617.452 1382.67 586.551 1359.36 557.39 1335.72C546.595 1326.99 536.056 1318.18 525.722 1309.32C513.674 1299 501.83 1288.68 490.447 1278.27C475.38 1264.51 460.876 1250.69 446.986 1236.79C335.457 1125.24 263.705 1010.85 245.927 907.818C233.418 835.385 250.148 776.968 297.01 729.279C348.017 677.462 433.557 640.117 542.119 620.244C560.536 568.259 581.487 518.146 604.867 470.241C541.838 476.362 482.901 487.162 428.799 502.522C446.219 483.85 464.151 465.633 482.901 448.161C553.655 382.208 633.747 325.159 720.975 278.478C749.19 263.381 778.146 249.389 807.819 236.573C758.961 291.726 714.554 355.375 675.289 425.865C667.871 439.161 660.708 452.745 653.674 466.521C630.14 512.698 608.781 561.515 589.8 612.732C584.633 626.653 579.696 640.741 574.887 655.021C563.606 688.598 553.323 723.063 544.089 758.391C523.829 765.567 505.974 777.376 492.059 792.472C472.515 813.688 460.621 841.265 460.621 871.505C460.621 886.218 463.562 900.258 468.678 913.29C476.122 932.203 488.401 948.883 504.184 962.011C493.977 1038.96 488.58 1118.52 488.58 1200.02C488.58 1207.2 488.861 1214.26 488.938 1221.41C508.737 1240.68 529.815 1259.88 552.044 1278.89C579.21 1248.1 607.834 1217.18 637.635 1186.25C638.198 1115.23 642.981 1045.36 651.985 977.42C672.577 966.715 689.639 950.875 701.38 931.771C712.278 914.01 718.596 893.49 718.596 871.529C718.596 864.977 717.88 858.593 716.831 852.329C713.019 829.985 702.787 809.68 687.849 793.192C701.253 741.447 717.189 691.382 735.683 643.405C740.799 630.133 746.171 617.076 751.671 604.116C772.161 555.899 795.132 509.89 820.737 466.689C828.462 453.657 836.443 440.889 844.603 428.361C845.345 427.257 846.01 426.057 846.752 424.929C967.899 240.965 1121.41 139.635 1279 139.635C1435.63 139.635 1588.22 239.789 1709.01 421.64C1757.56 401.072 1804.39 383.576 1849.11 369.343C1818.62 321.102 1785.62 276.534 1750.19 236.573C1779.86 249.389 1808.82 263.381 1837.03 278.478C1874.05 298.278 1909.78 319.926 1944.06 343.399C1958.92 353.599 1973.53 364.111 1987.88 374.96C1963.55 379.4 1938.1 385.232 1911.6 392.456C1898.2 396.104 1884.49 400.16 1870.57 404.504C1826.34 418.304 1779.61 435.585 1730.88 456.105C1718.19 461.457 1705.37 467.001 1692.4 472.785C1628.25 501.442 1561 535.427 1491.68 574.331C1476.74 582.732 1461.7 591.324 1446.55 600.156C1395.96 629.725 1344.44 661.789 1292.33 696.23C1278.24 705.542 1264.09 715.022 1249.92 724.695C1207.56 753.591 1164.94 783.928 1122.22 815.728C1109.92 812.056 1096.8 810.064 1083.21 810.064C1075.13 810.064 1067.25 810.856 1059.58 812.176C1014.69 819.976 978.055 849.593 962.451 888.882C957.233 902.034 954.24 916.218 954.24 931.075C954.24 936.547 954.777 941.899 955.493 947.155C854.247 1031.47 761.826 1117.22 679.74 1201.75C665.568 1216.32 651.755 1230.84 638.223 1245.36C619.499 1265.4 601.337 1285.37 583.866 1305.17C603.281 1320.87 623.387 1336.47 644.337 1351.83C659.173 1362.72 674.445 1373.52 689.997 1384.23C693.604 1386.7 697.16 1389.15 700.792 1391.62C801.424 1277.79 922.469 1161.24 1056.82 1049.54C1065.33 1051.2 1074.18 1052.11 1083.24 1052.11C1098.46 1052.11 1113.04 1049.52 1126.6 1044.96C1155.76 1035.19 1180.06 1015.89 1195.2 990.98C1205.97 973.315 1212.21 952.915 1212.21 931.075C1212.21 929.755 1212.06 928.483 1212.01 927.187C1283.35 873.81 1352.91 825.689 1419.85 782.824C1433.89 773.823 1447.81 765.111 1461.6 756.567C1514.6 723.783 1565.81 694.358 1614.85 668.173C1629.96 660.109 1644.93 652.261 1659.59 644.797C1693.66 627.493 1726.55 611.796 1758.15 597.78C1771.19 591.972 1783.93 586.572 1796.52 581.316C1846.83 560.339 1893.34 543.755 1935.47 531.419C1949.61 527.291 1963.3 523.546 1976.45 520.378C2021.13 509.506 2059.81 504.13 2091.35 504.13C2118.8 504.13 2131.95 508.354 2136.42 510.226L2136.53 510.25L2136.55 510.346C2142.26 527.891 2139.57 602.196 2054.11 744.759C2067.43 795.496 2078.74 847.529 2087.51 900.714C2096.03 907.29 2104.47 913.89 2112.76 920.538C2178.53 829.001 2227.23 743.463 2256.14 668.029C2265.45 683.054 2274.38 698.27 2282.92 713.726C2363.45 859.481 2409.24 1024.75 2409.24 1199.95C2409.18 1213.32 2408.62 1226.52 2408.11 1239.7ZM799.787 1801.88C819.407 1845.8 841.355 1887.57 865.477 1926.9C929.171 1898.39 995.935 1864.62 1064.69 1826.05C1008.11 1804.64 952.065 1781.1 896.864 1755.54C863.303 1772.6 830.867 1788.04 799.787 1801.88ZM1868.27 1017.55C1864.05 1014.64 1859.88 1011.74 1855.63 1008.86C1743.13 1136.11 1605.1 1266.72 1451.54 1390.11C1342.47 1477.81 1236.67 1553.45 1136.57 1617.56C1192.9 1639.38 1249.69 1658.77 1306.43 1675.71C1386.59 1621.06 1467.73 1561.06 1548.44 1496.14C1671.05 1397.64 1781.83 1296.48 1878.32 1197.02C1878.19 1136.11 1874.69 1076.16 1868.27 1017.55ZM2067.64 1124.01C2066.64 1099.92 2065.11 1076.04 2063.19 1052.35C2061.6 1032.64 2059.71 1013.08 2057.48 993.692C2054.7 969.187 2051.4 944.923 2047.64 920.946C2044.62 901.65 2041.27 882.546 2037.63 863.633C2033.11 840.137 2028.27 816.832 2022.85 793.936C2018.45 775.432 2013.79 757.167 2008.83 739.095C1992.38 679.166 1972.79 621.756 1950.43 567.203C1907.17 579.636 1860.59 596.7 1811.86 617.508C1828.98 659.173 1844.2 702.494 1857.37 747.231C1862.79 765.615 1867.83 784.24 1872.59 803.056C1880.57 834.833 1887.63 867.233 1893.64 900.186C1896.92 918.09 1899.88 936.139 1902.57 954.355C1904.62 968.299 1906.56 982.292 1908.27 996.38C1910.42 1014.14 1912.27 1032.02 1913.85 1050.02C1916.84 1084.1 1918.87 1118.57 1919.79 1153.39C1920.22 1168.9 1920.5 1184.42 1920.5 1200.05C1920.5 1204.25 1920.35 1208.4 1920.32 1212.58C1918.89 1408.01 1884.87 1594.42 1822.15 1757.03C1879.45 1756.96 1933.55 1752.88 1982.99 1745.17C2038.07 1581.56 2069.35 1396.4 2069.35 1200.05C2069.35 1193.62 2069.1 1187.28 2069.02 1180.87C2068.87 1161.79 2068.41 1142.85 2067.64 1124.01ZM1847.78 955.363C1852.38 958.363 1856.94 961.339 1861.49 964.363C1860.47 957.211 1859.52 950.011 1858.37 942.907C1849.13 884.418 1836.6 827.633 1821.15 772.912C1795.16 758.151 1768.76 743.559 1741.44 729.399C1714.86 715.598 1688.06 702.542 1661.17 689.822C1611.14 716.222 1560.16 745.239 1509.12 776.248C1563.35 799.336 1616.94 824.393 1669.43 851.633C1732.36 884.226 1791.96 919.05 1847.78 955.363ZM1396.72 582.66C1215.26 520.978 1034.48 483.034 867.6 469.713C841.355 512.17 817.54 557.339 796.538 605.148C938.073 611.028 1089.74 637.261 1242.07 681.134C1294.07 646.069 1345.72 613.164 1396.72 582.66Z" fill="url(#paint0_linear_23_2)"/>
<path d="M3764.48 456.064C3932.26 456.064 4064.61 497.601 4161.53 580.677C4258.46 663.752 4306.92 783.477 4306.92 939.854C4306.92 1091.34 4258.86 1209.85 4162.76 1295.37C4066.65 1380.88 3933.9 1423.64 3764.48 1423.64H3378.43V2185.98H3143.86V456.064H3764.48ZM3696.07 1218.4C3818.24 1218.4 3909.05 1196 3968.51 1151.2C4027.97 1106.41 4057.69 1035.96 4057.69 939.851C4057.69 754.154 3937.15 661.306 3696.07 661.306H3378.43V1218.4L3696.07 1218.4ZM4756.5 1027.82V1721.74C4756.5 1812.96 4780.52 1883.82 4828.58 1934.31C4876.63 1984.8 4940.57 2010.06 5020.38 2010.06C5123.01 2010.06 5202.42 1976.26 5258.61 1908.66C5314.81 1841.05 5342.91 1749.43 5342.91 1633.77V1027.82H5562.81V2185.98H5342.91V2007.61H5338.02C5307.07 2072.77 5256.58 2123.67 5186.53 2160.32C5116.49 2196.97 5039.93 2215.3 4956.86 2215.3C4828.17 2215.3 4725.96 2175.39 4650.21 2095.57C4574.47 2015.76 4536.59 1911.5 4536.59 1782.82V1027.82H4756.5ZM6132.12 338.782V2185.98H5912.22V338.782H6132.12ZM6872.47 998.495C6960.43 998.495 7039.02 1014.79 7108.25 1047.37C7177.49 1079.95 7230.83 1127.18 7268.3 1189.08L7097.26 1318.58C7032.1 1242.02 6953.1 1203.74 6860.25 1203.74C6804.87 1203.74 6758.85 1215.96 6722.2 1240.39C6685.55 1264.83 6667.22 1295.78 6667.22 1333.24C6667.22 1414.69 6742.97 1470.07 6894.46 1499.39C7042.69 1527.08 7147.35 1567.81 7208.43 1621.56C7269.52 1675.32 7300.06 1751.88 7300.06 1851.24C7300.06 1963.64 7257.3 2052 7171.78 2116.35C7086.26 2180.69 6971.83 2213.68 6828.49 2215.3C6720.98 2215.3 6632.61 2198.61 6563.38 2165.22C6494.15 2131.82 6434.28 2080.1 6383.79 2010.06L6549.94 1873.23C6637.9 1964.45 6731.57 2010.06 6830.93 2010.06C6896.09 2010.06 6951.47 1997.03 6997.08 1970.97C7042.69 1944.9 7065.5 1909.07 7065.5 1863.46C7065.5 1783.64 6992.19 1728.25 6845.59 1697.3C6682.7 1664.73 6573.15 1621.15 6516.96 1566.58C6460.76 1512.01 6432.66 1441.57 6432.66 1355.23C6432.66 1247.72 6474.2 1161.8 6557.27 1097.45C6640.35 1033.11 6745.41 1000.12 6872.47 998.495ZM8096.6 998.495C8274.15 998.495 8412.22 1054.28 8510.76 1165.87C8609.3 1277.45 8659.4 1430.97 8661.02 1626.44V1687.53H7732.54C7732.54 1782.01 7770.41 1861.41 7846.16 1925.76C7921.9 1990.11 8014.35 2023.09 8123.48 2024.72C8244.02 2024.72 8349.9 1966.89 8441.12 1851.24L8607.27 1978.29C8483.48 2136.29 8312.43 2215.3 8094.16 2215.3C7916.61 2215.3 7773.66 2158.69 7665.35 2045.48C7557.03 1932.28 7501.24 1786.07 7497.97 1606.9C7497.97 1434.24 7553.76 1290.48 7665.35 1175.64C7776.93 1060.8 7920.68 1001.76 8096.6 998.495ZM8426.46 1511.61C8423.2 1402.47 8392.25 1318.98 8333.61 1261.16C8274.97 1203.34 8194.34 1174.42 8091.72 1174.42C8023.3 1174.42 7961.81 1191.11 7907.24 1224.51C7852.67 1257.9 7809.91 1301.07 7778.96 1354.01C7748.01 1406.95 7732.54 1459.48 7732.54 1511.61H8426.46ZM10281 456.064C10448.8 456.064 10581.1 497.601 10678 580.677C10775 663.752 10823.4 783.477 10823.4 939.854C10823.4 1091.34 10775.4 1209.85 10679.3 1295.37C10583.2 1380.88 10450.4 1423.64 10281 1423.64H9894.93V2185.98H9660.37V456.064H10281ZM10212.6 1218.4C10334.7 1218.4 10425.6 1196 10485 1151.2C10544.5 1106.41 10574.2 1035.96 10574.2 939.851C10574.2 754.154 10453.7 661.306 10212.6 661.306H9894.93V1218.4L10212.6 1218.4ZM11624.8 998.495C11665.6 998.495 11698.2 1003.38 11722.6 1013.16L11712.8 1250.16C11670.5 1238.76 11633.8 1233.06 11602.9 1233.06C11386.2 1233.06 11276.3 1353.6 11273 1594.68V2185.98H11053.1V1027.82H11273V1206.18H11277.9C11307.2 1144.28 11354.4 1094.2 11419.6 1055.91C11484.8 1017.63 11553.2 998.495 11624.8 998.495ZM12472.7 998.495C12643.7 998.495 12788.7 1057.55 12907.6 1175.64C13026.5 1293.73 13086.8 1437.5 13088.4 1606.9C13088.4 1777.93 13029 1921.29 12910.1 2036.93C12791.2 2152.58 12645.4 2212.04 12472.7 2215.3C12303.3 2215.3 12159.1 2156.66 12040.2 2039.38C11921.3 1922.09 11860.2 1777.93 11857 1606.9C11857 1439.12 11916 1296.59 12034.1 1179.31C12152.2 1062.02 12298.4 1001.76 12472.7 998.495ZM12091.5 1606.9C12091.5 1725.81 12126.6 1822.32 12196.6 1896.44C12266.6 1970.56 12358.7 2008.43 12472.7 2010.06C12588.4 2010.06 12680.4 1973 12748.8 1898.88C12817.2 1824.77 12852.2 1727.44 12853.9 1606.9C12853.9 1487.99 12819.7 1391.48 12751.2 1317.36C12682.8 1243.24 12589.2 1205.37 12470.3 1203.74C12354.6 1203.74 12262.6 1242.02 12194.2 1318.58C12125.7 1395.14 12091.5 1491.24 12091.5 1606.9ZM13845.9 309.461C13911 309.461 13965.6 315.161 14009.6 326.565L13985.2 522.035C13949.3 507.375 13907.8 500.045 13860.5 500.045C13793.8 500.045 13745.7 518.37 13716.4 555.021C13687.1 591.672 13672.4 656.421 13672.4 749.27V1027.82H13933.8V1218.4H13670V2185.98H13450.1V1218.4H13200.8V1027.82H13450.1V759.043C13450.1 604.292 13481.4 490.687 13544.1 418.192C13606.8 345.696 13707.4 309.461 13845.9 309.461ZM14305.2 451.177C14349.2 451.177 14387.1 467.062 14418.9 498.826C14450.6 530.59 14466.5 568.462 14466.5 612.443C14466.5 658.054 14450.2 696.334 14417.6 727.284C14385.1 758.235 14347.6 773.709 14305.2 773.709C14259.6 773.709 14221.4 758.235 14190.4 727.284C14159.5 696.334 14144 658.054 14144 612.443C14144 566.832 14160.3 528.552 14192.8 497.601C14225.4 466.651 14262.9 451.177 14305.2 451.177ZM14415.2 1027.82V2185.98H14195.3V1027.82H14415.2ZM15001.6 338.782V2185.98H14781.7V338.782H15001.6ZM15881.2 998.495C16058.8 998.495 16196.8 1054.28 16295.4 1165.87C16393.9 1277.45 16444 1430.97 16445.6 1626.44V1687.53H15517.2C15517.2 1782.01 15555 1861.41 15630.8 1925.76C15706.5 1990.11 15799 2023.09 15908.1 2024.72C16028.6 2024.72 16134.5 1966.89 16225.7 1851.24L16391.9 1978.29C16268.1 2136.29 16097 2215.3 15878.8 2215.3C15701.2 2215.3 15558.3 2158.69 15450 2045.48C15341.7 1932.28 15285.9 1786.07 15282.6 1606.9C15282.6 1434.24 15338.4 1290.48 15450 1175.64C15561.5 1060.8 15705.3 1001.76 15881.2 998.495ZM16211.1 1511.61C16207.8 1402.47 16176.9 1318.98 16118.2 1261.16C16059.6 1203.34 15979 1174.42 15876.3 1174.42C15807.9 1174.42 15746.4 1191.11 15691.9 1224.51C15637.3 1257.9 15594.5 1301.07 15563.6 1354.01C15532.6 1406.95 15517.2 1459.48 15517.2 1511.61H16211.1Z" fill="url(#paint1_linear_23_2)"/>
<defs>
<linearGradient id="paint0_linear_23_2" x1="0" y1="0" x2="2558.03" y2="0" gradientUnits="userSpaceOnUse">
<stop stop-color="#905E26"/>
<stop offset="0.5" stop-color="#F5EC9B"/>
<stop offset="1" stop-color="#905E26"/>
</linearGradient>
<linearGradient id="paint1_linear_23_2" x1="3143.86" y1="309.461" x2="16445.6" y2="309.461" gradientUnits="userSpaceOnUse">
<stop stop-color="#905E26"/>
<stop offset="0.5" stop-color="#F5EC9B"/>
<stop offset="1" stop-color="#905E26"/>
</linearGradient>
</defs>
</svg>
